<?xml version="1.0" encoding="UTF-8"?>
<svg viewBox="0 0 429.76 381.83">
  <g id="Layer_1-2" data-name="Layer 1">
    <g>
      <path class="cls-1" d="M421.18,203.34c-21.75-21.37-51.37-7.85-76.87-2.84-9.21,1.9-18.51,3.31-27.77,4.94,26.69-24.18,61.21-40.07,89.26-63.13,37.44-41.46-36.81-82.62-72.16-57.42-22.79,12.56-44.51,25.56-67.19,38.5,15.28-23.55,32.21-45.23,48.24-68.21,5.01-6.98,8.08-14.59,7-23.32-6.99-40.96-68.06-40.02-90.12-10.9-37.69,45.34-71.61,94.45-117.99,131.78-.45-.25-.9-.49-1.35-.74-.05-33.5-9.19-76.38-46.83-85.32-17.82-3.38-54.31-4.79-57.1,18.95-2.87,25.41,9.34,49.24,20.81,71.07,3.35,6.18,4.42,12.35,3.64,19.19-2.36,20.84-4.6,41.69-6.74,62.56-.27,2.63-1.27,3.69-3.73,4.33C.11,249.38-3.65,277.98,2.9,296.85c13.17,34.76,36.77,73.01,74.5,83.71,12.65,3.07,25.28,1.05,32.68-11.39.73-1.22,3.53-1.91,5.27-1.73,91.76,17.86,128.19-36.07,198.62-74.64,25.92-12.12,52.05-23.77,78.03-35.76,8.89-4.1,18.06-7.89,26.3-13.1,14.13-8.93,15.32-29.5,2.88-40.6ZM87.89,370.02s-.06.01-.09,0c-1.63.03-3.34-.15-5.1-.49-.95-.02-1.93-.12-2.93-.29-.02,0-.04,0-.05,0-3.41-.6-7.09-2.04-10.91-4.17-.01-.01-.03-.01-.05-.02-7.23-4.06-14.97-10.56-22.35-18.47-.02-.02-.04-.05-.06-.07-11.25-12.09-21.64-27.45-28.02-42.29-.03-.06-.05-.12-.07-.17-5.69-13.32-8.15-26.22-5.07-35.95.04-.14.09-.27.14-.4,1.87-5.65,5.65-10.2,11.78-13.11,7.37,48.12,35.96,81.36,73.55,109.74-2.47,3.98-6.31,5.62-10.77,5.7ZM409.31,235.76c-48.36,23.51-100.34,40.73-144.33,72.32-8.42,6.35-16.59,13.17-25.12,19.36-4.37,3.17-8.84,6.18-13.49,8.87-10.2,5.83-21.04,10.81-32.24,14.61-.08.03-.16.06-.24.09-19.79,6.7-40.7,9.73-61.16,7.32-12.02-1.41-23.89-4.7-35.29-10.22-3.73-2.87-7.4-5.91-10.97-9.09-13.48-12.04-25.56-26.22-34.38-41.88h-.01c-3.18-5.67-5.94-11.52-8.19-17.53h-.01c-2.99-8.01-5.08-16.3-6.06-24.81-.88-7.5-.89-15.17.11-22.96.22-1.87.52-3.74.87-5.62.75-6.86,1.57-13.71,2.42-20.56,1.16-9.35,2.38-18.69,3.55-28.03,1.12-9-.23-17.37-4.62-25.54-5.35-10.36-11.02-21.04-15.06-32.18-3.36-9.19-5.6-18.7-5.66-28.6.02-.33.04-.65.07-.96.62-6.58,3.77-9.8,10.3-11.32.26-.06.53-.12.81-.18,7.27-1.98,14.85-2.55,22.16-1.77.02,0,.04,0,.06.01,12.88,1.38,24.92,6.98,32.94,16.49.01.01.03.03.04.05,4.55,5.43,7.8,12.13,9.16,20.04.13.74.26,1.48.39,2.21,1.58,9.14,2.63,17.14,3.41,24.02.01.04.01.09.01.13,1.49,13.08,2.02,22.05,3.53,26.84,1.38,4.41,3.59,5.3,8.11,2.63.02-.01.03-.02.05-.03.66-.39,1.37-.85,2.13-1.4,1.89-1.34,4.12-3.16,6.75-5.44.04-.04.09-.07.13-.12,7.63-6.62,18.63-17.15,34.7-31.6,1.38-1.24,2.79-2.51,4.24-3.8,13.38-13.3,25.64-27.57,37.48-42.21t.01-.02c11.83-14.63,23.22-29.64,34.86-44.42,3.14-4.83,7-9.37,11.38-13.35,8.52-7.78,18.98-13.45,29.81-15.06,7.78-1.16,15.75-.22,23.33,3.55,2.3,1.13,4.55,2.53,6.76,4.21,1.28.95,2.4,1.97,3.38,3.06.08.09.16.18.23.28,5.15,5.99,5.7,13.88,1.56,21.52-20.98,32.6-45.93,63.23-66.95,96-1,1.56-1.99,3.13-2.98,4.7-1.47,2.35-2.92,4.72-4.35,7.1-.95,1.59-1.89,3.19-2.82,4.79s-1.84,3.2-2.75,4.82c-1.36,2.41-2.68,4.85-3.98,7.3-.86,1.64-1.71,3.28-2.55,4.93-3.34,6.6-6.44,13.33-9.25,20.21.36.2.72.41,1.08.61,9.33-12.62,18.49-25.49,28.67-37.42,10.65-10.24,22.72-18.74,35.38-26.48,1.58-.97,3.18-1.92,4.78-2.87,3.2-1.88,6.43-3.73,9.68-5.56,1.63-.92,3.26-1.82,4.89-2.72,3.26-1.81,6.54-3.59,9.82-5.37,3.28-1.79,6.55-3.57,9.82-5.36,2.17-1.2,4.34-2.4,6.5-3.61,2.16-1.21,4.31-2.44,6.45-3.67,2.14-1.24,4.26-2.49,6.37-3.76,2.11-1.27,4.2-2.56,6.27-3.87,12.05-8.73,32.24-6.08,46.52,2.14.35.2.69.41,1.03.61,1.73,1.05,3.36,2.18,4.87,3.38.47.38.93.76,1.38,1.15.67.58,1.31,1.19,1.93,1.81.21.2.41.41.61.62.2.21.39.42.58.63.29.33.57.66.85.99.97,1.18,1.82,2.4,2.55,3.65.27.46.51.93.74,1.39.23.47.44.95.63,1.42.17.42.32.84.46,1.26,1.15,3.57,1.21,7.35-.15,11.19-.12.33-.25.66-.38.99-.8,1.91-1.96,3.83-3.52,5.76-.47.58-.96,1.15-1.5,1.72-.18.2-.37.39-.56.58-.18.19-.38.38-.57.57-.39.38-.8.77-1.23,1.15-.64.57-1.31,1.14-2.03,1.71-1.56,1.07-3.13,2.13-4.71,3.19-4.74,3.17-9.55,6.3-14.4,9.42-4.86,3.12-9.75,6.23-14.66,9.36-4.9,3.12-9.8,6.25-14.69,9.43-35.82,23.33-70.23,48.94-89.84,87.68,18.89-11.95,31.47-35.43,55.02-38.42,23.75-4.03,47.37-8.86,71.01-13.56,11.7-2.33,22.31.06,31.38,7.51,8.26,6.79,6.48,19.48-3.31,23.99Z"/>
      <path class="cls-1" d="M19.43,91.31c.02-.33.04-.65.07-.96-1.38,7.98,1.5,18.91,5.59,29.56-3.36-9.19-5.6-18.7-5.66-28.6ZM37.93,231.84c.22-1.87.52-3.74.87-5.62.75-6.86,1.57-13.71,2.42-20.56-1.3,8.72-2.59,17.46-3.29,26.18ZM37.82,254.8c.51,5.88,1.54,11.72,3.25,17.5.91,2.49,1.85,4.93,2.81,7.3-2.99-8-5.08-16.29-6.06-24.8ZM52.09,297.14c9.67,18.09,21.32,31.91,34.38,41.88-13.48-12.04-25.56-26.22-34.38-41.88ZM52.83,77.09c12.88,1.38,24.92,6.98,32.94,16.49-6.69-9.13-16.96-15.58-32.94-16.49ZM82.22,301.42c-.86,1.56-.89,3.36.42,5.49,1.35,2.19,3.07,3.05,4.92,2.94-4.06,0-6.97-4.64-5.34-8.43ZM74.73,279.09c6.11-5,11.75-10.52,17.42-16.04-5.79,5.37-11.6,10.71-17.42,16.04ZM96.55,242.8c1.27-1.22,2.53-2.18,3.83-2.65-1.37.35-2.72,1.19-3.83,2.65ZM95.36,115.88c1.58,9.14,2.63,17.14,3.41,24.02-.62-7.67-1.52-16-3.41-24.02ZM105.09,250.95c1.79-1.52,2.69-3.09,2.95-4.55-.33,1.45-1.31,3-2.95,4.55ZM102.31,166.87c1.38,4.41,3.59,5.3,8.11,2.63-4.14,2.12-6.57.89-8.11-2.63ZM112.6,168.07c1.89-1.34,4.12-3.16,6.75-5.44-2.23,1.84-4.48,3.65-6.75,5.44ZM128.53,322.9c9.78-3.54,20.31-7.95,26.74-12.43-8.67,4.64-17.58,8.86-26.74,12.43ZM132.73,358.33c19.52,2.75,40.3.03,61.16-7.32-19.79,6.7-40.7,9.73-61.16,7.32ZM158.01,298.25c2.11.78,3.32,2.83,3.33,5.06.04-.29.05-.58.03-.86-.15-2.23-1.45-3.66-3.36-4.2ZM154.18,130.91c1.38-1.24,2.79-2.51,4.24-3.8,13.38-13.3,25.64-27.57,37.48-42.21-13.25,15.95-27.06,31.38-41.72,46.01ZM239.86,327.44c8.54-5.77,16.94-12.24,25.12-19.36-8.42,6.35-16.59,13.17-25.12,19.36ZM255.79,17.2c-5.26,2.48-9.67,5.94-13.64,9.91,8.52-7.78,18.98-13.45,29.81-15.06-6.04.55-11.75,2.25-16.17,5.15ZM291.18,122.8c-3.25,1.82-6.48,3.67-9.68,5.56,3.2-1.88,6.43-3.73,9.68-5.56ZM295.29,15.6c2.3,1.13,4.55,2.53,6.76,4.21,1.28.95,2.4,1.97,3.38,3.06-2.54-3.04-6.07-5.48-10.14-7.27Z"/>
      <path class="cls-1" d="M18.26,304.04c-5.81-12.95-8.64-25.85-5.07-35.95-3.08,9.73-.62,22.63,5.07,35.95Z"/>
      <path class="cls-1" d="M68.76,365.04c-5.34-2.75-10.15-6.17-13.33-9.14-2.64-2.42-5.72-5.59-9.02-9.33,7.38,7.91,15.12,14.41,22.35,18.47Z"/>
      <path class="cls-1" d="M87.8,370.02c-2.55.19-5.27-.12-8.03-.78,1,.17,1.98.27,2.93.29,1.76.34,3.47.52,5.1.49Z"/>
      <path class="cls-1" d="M154.5,261.79c-17.27,19.05-42.45,30.4-62.78,46.44-1.31.9-2.64,1.48-3.91,1.61-.08.01-.17.02-.25.01-1.85.11-3.57-.75-4.92-2.94-1.31-2.13-1.28-3.93-.42-5.49.01-.02.02-.04.02-.05.69-1.21,1.85-2.28,3.26-3.25,18.99-13.17,37.89-26.45,57-39.44,2.13-1.45,5.46-1.76,8.14-1.53,1.29.12,2.36,2.73,3.86,4.64Z"/>
      <path class="cls-1" d="M161.37,302.45c.02.28.01.57-.03.86v.02c-.33,2.32-2.61,4.74-6.07,7.14-6.43,4.48-16.96,8.89-26.74,12.43-.01.01-.02.01-.03.01-8.91,3.23-17.19,5.73-21.17,6.9-.18.05-.34.09-.5.14-.32.28-.64.56-.95.85-5.66-4.29-5.75-7.52-3.34-10.02.34-.36.74-.71,1.19-1.03.24-.19.5-.37.76-.54.38-.25.78-.49,1.19-.71,1.05-.58,2.2-1.1,3.4-1.59.42-.17.83-.33,1.26-.49,3.01-1.13,6.18-2.04,8.52-2.84,11.12-4.72,22.13-9.73,33.18-14.61,2.19-.97,4.31-1.19,5.97-.72,1.91.54,3.21,1.97,3.36,4.2Z"/>
      <path class="cls-1" d="M108.04,246.4c-.26,1.46-1.16,3.03-2.95,4.55-4.47,3.88-8.71,7.99-12.94,12.1-5.67,5.52-11.31,11.04-17.42,16.04-2.94,2.4-5.99,4.69-9.21,6.79-.23-.12-.46-.24-.67-.36-.65-.36-1.22-.73-1.71-1.11-.33-.25-.62-.51-.89-.76-.4-.39-.73-.78-.99-1.17-.17-.26-.32-.52-.45-.79-.06-.14-.11-.27-.16-.41-.09-.26-.16-.53-.21-.8-.27-1.54.25-3.12,1.22-4.67.18-.28.37-.56.57-.84.52-.7,1.12-1.39,1.77-2.07.12-.13.26-.27.39-.4.4-.4.82-.8,1.24-1.18.22-.2.44-.39.66-.59.13-.11.27-.23.41-.34.16-.14.32-.27.47-.4,1.24-1.04,2.49-2,3.6-2.85,8.65-8.05,17.28-16.13,25.78-24.34,1.11-1.46,2.46-2.3,3.83-2.65.01,0,.01-.01.02-.01,4.06-1.03,8.33,2.21,7.64,6.26Z"/>
    </g>
  </g>
</svg>