<?xml version="1.0" encoding="UTF-8"?>
<svg id="Layer_2" data-name="Layer 2" xmlns="http://www.w3.org/2000/svg" viewBox="0 0 327.88 279.48">
  <defs>
    <style>
      .cls-1 {
        stroke-width: 0px;
      }
    </style>
  </defs>
  <g id="Layer_1-2" data-name="Layer 1">
    <g>
      <path class="cls-1" d="M325.62,118.83c-4.47-34.25-29.27-99.23-73.86-75.33C197.23-4.28,89.26-29.91,62.52,59.58,13.97,49.76-20.04,106.07,18.46,140.82c-30.67,23.99-21.63,79.41,16.13,90.48,3.22,1.03,4.5,2.31,5.03,5.54,3.63,25.78,30.47,37.58,53.61,40.7,73.19,9.66,153.01-16.45,191.45-83.07,1.38-2.38,2.69-3.18,5.53-2.55,35.82,5.32,41.88-47.86,35.41-73.09ZM272.11,192.71c-12.62,23.98-35.31,42.45-61.94,55.07-.01,0-.02.01-.03.02-24.84,12.43-52.81,18.95-80.87,19.76-14.57.63-28.65-.35-41.42-2.98-16.61-2.99-35-13.09-36.7-31.88,18.63-.24,36.99-1.04,54.52-8.19-18.12-1.34-36.27-2.65-54.44-3.13-6.73.43-12.79-.92-18.02-3.57l-.06-.03c-6.86-3.04-12.44-8.21-16.17-16.24-.26-.55-.51-1.11-.74-1.66-2.65-5.57-4.15-11.77-4.31-18.05,0-.06-.01-.12-.01-.19-.01-.3-.01-.6-.01-.9-.01-.54,0-1.07.03-1.6v-.17s-.01-.02,0-.03c.08-1.76.25-3.52.54-5.26v-.03c.06-.32.12-.65.18-.97.07-.37.15-.75.23-1.13.02-.11.05-.22.08-.34,1.1-4.9,3.12-9.64,6.13-13.94,4.43-6.73,10.86-9.3,18.91-8.23,18.48,2.46,36.86,2.5,56.14-3.2-19.5-2.75-37.3-4.14-56.18-8.67-3.53-.96-6.65-2.36-9.37-4.11-.98-.63-1.9-1.29-2.77-2-.87-.72-1.69-1.46-2.46-2.24-.93-.95-1.79-1.94-2.56-2.97-1.04-1.38-1.95-2.83-2.75-4.34h0c-.48-.93-.92-1.87-1.31-2.84-1.72-4.25-2.55-8.85-2.52-13.46.01-.84.04-1.69.1-2.53h0c.03-.43.07-.85.12-1.27.09-.84.21-1.68.36-2.52.07-.41.15-.83.24-1.24h0c.09-.42.19-.83.29-1.24.1-.42.21-.82.33-1.23.12-.4.24-.8.37-1.19.04-.14.08-.28.13-.41.14-.41.29-.81.43-1.21.18-.47.37-.93.57-1.39.19-.45.39-.89.6-1.34,1.6-3.34,3.74-6.43,6.39-9.07.71-.71,1.45-1.38,2.23-2.02,1.56-1.28,3.27-2.42,5.11-3.39.47-.24.94-.47,1.42-.7,3.12-1.44,6.61-2.42,10.47-2.83,1.11.06,2.21.12,3.31.17,3.27.17,6.52.33,9.72.45,10.5.4,20.56.45,30.17-.54.86-.1,1.71-.2,2.57-.3.43-.05.86-.11,1.29-.17,1.3-.18,2.58-.38,3.86-.6.43-.07.86-.15,1.29-.23,8.03-1.51,15.71-3.97,23.01-7.82t.01,0c.77-.41,1.53-.83,2.29-1.26.38-.22.76-.45,1.15-.68.75-.45,1.49-.92,2.24-1.4,2.25-1.47,4.45-3.09,6.63-4.88.58-.47,1.15-.96,1.72-1.47,1.22-1.05,2.43-2.17,3.62-3.34.44-.43.87-.87,1.31-1.31h0c.87-.9,1.73-1.83,2.58-2.78h0c.43-.48.85-.97,1.27-1.46t.01-.01c.34-.4.67-.8,1.01-1.2h0c.34-.41.67-.82,1.01-1.24.66-.84,1.33-1.69,1.99-2.57-21.7,11.61-43.63,23.96-69.17,22.17.54-2.23,1.16-4.37,1.84-6.43.51-1.55,1.06-3.05,1.65-4.5.39-.97.8-1.91,1.22-2.84.64-1.39,1.31-2.74,2.01-4.04.47-.87.96-1.72,1.45-2.54.25-.42.5-.83.76-1.23.78-1.21,1.58-2.38,2.41-3.51.84-1.13,1.71-2.21,2.6-3.25,3.1-3.61,6.57-6.72,10.35-9.34.57-.4,1.15-.79,1.74-1.17.51-.33,1.03-.65,1.55-.96.99-.6,2-1.17,3.02-1.7t.01-.01c.78-.41,1.57-.8,2.37-1.17,1.61-.76,3.25-1.44,4.93-2.07.83-.3,1.68-.6,2.53-.87,21.42-6.99,47.97-4.04,72.99,5.01,0,0,0,.01.01.01,1.48.53,2.95,1.09,4.41,1.66,2.94,1.16,5.85,2.4,8.72,3.72,1.43.65,2.86,1.32,4.27,2.02.71.35,1.41.7,2.12,1.06,1.4.7,2.79,1.43,4.16,2.18,4.83,2.61,9.5,5.44,13.95,8.44,1.01.67,2,1.36,2.98,2.06,2.13,1.49,4.19,3.03,6.2,4.61,3.52,2.76,6.85,5.64,9.95,8.6,2.07,1.98,4.03,4,5.89,6.05.71.79,1.41,1.58,2.08,2.38,3.74,4.38,6.95,8.91,9.54,13.51,12.59,22.43,15.39,48.28,18.79,73.35,2.12,15.72-2.57,29.52-10.67,42.53ZM315.72,148.3c-.03.36-.07.72-.12,1.1-.02.18-.05.37-.07.56-.05.38-.1.77-.16,1.17-.15.99-.32,2.02-.53,3.08-.04.21-.08.42-.13.64-.06.3-.12.6-.19.9-.07.33-.15.67-.23,1.01-.26,1.11-.55,2.24-.88,3.37-.13.45-.27.89-.41,1.34-.21.66-.44,1.33-.67,1.99-.16.45-.32.89-.49,1.33-.18.43-.35.86-.53,1.29-.09.23-.18.44-.28.66-.19.42-.38.84-.58,1.26-.09.21-.2.42-.3.63-.21.41-.42.81-.64,1.21h0c-.21.38-.42.75-.63,1.11-.21.36-.43.72-.66,1.07-.23.35-.46.7-.7,1.03-.17.25-.35.49-.53.72-.14.18-.27.35-.4.51-.19.23-.37.45-.56.67-.31.35-.62.69-.94,1-.19.2-.38.38-.58.57-.09.08-.18.16-.26.23-.25.22-.5.43-.75.63-.15.12-.31.24-.48.36-.15.12-.31.23-.47.34-.34.23-.69.44-1.04.64-.34.2-.7.38-1.06.54-.72.32-1.47.58-2.25.78-.36.09-.73.16-1.11.21-.07.02-.13.03-.2.03-.17.03-.34.05-.51.06-1,.11-2.05.09-3.14-.06,4.29-46.92-2.38-90.32-31.74-128.45,9.15-2.44,17-.37,23.67,4.66.21.14.42.3.62.47.78.61,1.54,1.25,2.29,1.94.2.19.39.37.58.55.05.03.09.07.13.12,10.91,10.62,18.22,29.34,22.45,47.69.09.35.16.7.24,1.04.09.42.18.83.27,1.24.28,1.3.54,2.59.79,3.87,2.67,13.54,3.65,26.35,3.18,34.89Z"/>
      <path class="cls-1" d="M230.31,95.26c5.62-.45,11.24-.93,16.75-1.58-5.58.53-11.17,1.05-16.75,1.58ZM231.67,107.59c4.1-.46,8.19-.99,12.39-1.57-4.13.55-8.26,1.08-12.39,1.57ZM223.34,183.18c-.26.12-.53.24-.79.36.27-.12.53-.24.79-.35.17-.08.33-.16.5-.23.05-.02.1-.05.15-.07-.22.1-.43.2-.65.29ZM218.04,108.91c1.8-.14,3.58-.29,5.34-.46-1.72.12-3.5.28-5.34.46ZM209.41,188.93c2.12-.78,4.21-1.59,6.27-2.44-2.06.84-4.15,1.66-6.27,2.44ZM206.39,97.53c-1.43-.27-2.91.03-4.24.67,2-.32,4.01-.59,6.04-.84-.6.05-1.2.11-1.8.17ZM203.3,109.45c1.24.44,2.46.54,3.41.13-1.13-.01-2.27-.05-3.41-.13ZM206.21,138.35c-.23.07-.46.13-.71.18-.17.05-.35.09-.53.13-.18.04-.37.08-.55.12-.89.18-1.86.36-2.88.53-.45.08-.92.16-1.39.23-.22.03-.45.07-.69.11,3.71-.55,6.94-1.1,8.67-1.92-.54.23-1.19.43-1.92.62ZM198.37,101.51c-.07.1-.13.21-.19.32-.06.1-.12.21-.17.32-.17.35-.31.7-.4,1.05-.02.09-.04.17-.06.26-.02.09-.03.17-.04.26-.02.12-.03.24-.04.36.14.72.59,1.49,1.21,2.23-1.19-1.49-1.36-3.07-.31-4.8ZM180.79,152.19c.74.89,1.69,1.84,2.89,2.88-.76-.88-1.9-1.82-2.89-2.88ZM181.04,144.31c-.09.05-.17.11-.25.17-.1.07-.19.14-.28.21-.22.18-.42.36-.6.55-.07.07-.14.15-.2.22-.16.19-.3.38-.41.57-.04.05-.06.1-.09.16-.31.56-.45,1.17-.41,1.83,0-1.62.97-2.89,2.57-3.92-.11.06-.22.14-.33.21ZM85.21,39.57c.78-1.21,1.58-2.38,2.41-3.51-.84,1.13-1.64,2.3-2.41,3.51ZM80.99,47.38c.64-1.39,1.31-2.74,2.01-4.04-.71,1.3-1.38,2.65-2.01,4.04ZM23.37,128.82c.77.79,1.59,1.53,2.46,2.24-.87-.72-1.69-1.46-2.46-2.24ZM11.94,178.94c.08-1.76.25-3.52.54-5.26-.3,1.74-.49,3.49-.54,5.26Z"/>
      <path class="cls-1" d="M288.79,59.57c11.01,10.57,18.27,29.3,22.45,47.69-4.23-18.35-11.54-37.07-22.45-47.69Z"/>
      <path class="cls-1" d="M255.98,138.02c-9.23,2.4-18.12,4.71-26.97,6.92-5.9,1.47-11.79,2.9-17.74,4.28-2.98.69-5.98,1.36-9,2.03-3.03.66-6.08,1.31-9.18,1.95-3.09.64-6.23,1.26-9.41,1.87-1.2-1.04-2.15-1.99-2.89-2.88-.02-.02-.03-.04-.05-.06-1.21-1.47-1.82-2.75-1.93-3.86-.21-1.87.95-3.29,2.93-4.39.13-.08.26-.15.4-.22,3.73-1.91,9.96-2.88,15.59-3.75l.99-.15c3.88-.6,7.37-1.18,9.41-2.03,14.69-3.54,29.31-7.34,43.95-11.1,3.61-.93,7.06-1.38,9.16,2.53,1.91,3.55-.29,7.56-5.26,8.86Z"/>
      <path class="cls-1" d="M257.8,166.51c-2.04.94-4.05,1.91-6.06,2.88-2.01.97-4,1.96-5.99,2.94-1.99.99-3.98,1.98-5.96,2.96-7.93,3.94-15.84,7.82-24.11,11.2-2.06.85-4.15,1.66-6.27,2.44-5.8-4.22-5.4-7.55-2.47-10.24.32-.29.67-.58,1.05-.86.18-.14.38-.28.58-.41.4-.28.82-.54,1.27-.8.66-.39,1.36-.76,2.09-1.11.49-.24.98-.47,1.49-.7.5-.23,1.01-.45,1.52-.66.51-.21,1.02-.42,1.53-.62.25-.11.51-.21.76-.3.5-.2,1-.39,1.48-.58.73-.28,1.44-.55,2.1-.81.89-.35,1.7-.68,2.4-.99,9.67-4.71,19.23-9.66,28.72-14.73,6.15-3.28,9.23-3.44,11.4.09,2.21,3.58.63,7.24-5.53,10.3Z"/>
      <path class="cls-1" d="M252.79,104.79c-1.99.29-3.94.56-5.86.83-.71.1-1.42.2-2.12.3-.25.03-.5.07-.75.1-4.2.58-8.29,1.11-12.39,1.57-.77.1-1.54.18-2.31.26-1.91.21-3.83.41-5.76.59-.07.01-.15.01-.22.01-1.76.17-3.54.32-5.34.46-3.64.27-7.37.49-11.28.65-.02.01-.03.01-.05.02-.95.41-2.17.31-3.41-.13-1.51-.52-3.04-1.52-4.17-2.65-.16-.16-.31-.32-.45-.49-.62-.74-1.07-1.51-1.21-2.23.05-.96.46-1.97,1.12-2.9.21-.29.44-.58.69-.85.79-.86,1.78-1.61,2.87-2.13,1.33-.64,2.81-.94,4.24-.67.6-.06,1.2-.12,1.8-.17,7.25-.7,14.51-1.38,21.76-2.07.12-.01.24-.02.36-.03,5.58-.53,11.17-1.05,16.75-1.58,3.18-.48,7.32-.97,9.5,1.17.25.24.47.52.67.84.19.32.35.67.48,1.07.13.4.23.83.28,1.32.51,3.73-1.63,6.19-5.2,6.71Z"/>
    </g>
  </g>
</svg>