<?xml version="1.0" encoding="UTF-8"?>
<svg id="Layer_2" data-name="Layer 2" xmlns="http://www.w3.org/2000/svg" viewBox="0 0 439.59 308.68">
  <defs>
    <style>
      .cls-1 {
        stroke-width: 0px;
      }
    </style>
  </defs>
  <g id="Layer_1-2" data-name="Layer 1">
    <g>
      <path class="cls-1" d="M322.73,176.09c25.6,3.11,51.22,6.11,76.79,9.44,27.81,6.07,47.13-21.98,37.62-46.97-7.03-23.24-23.23-37.87-46.7-42.35-36.64-6.55-74.53-9.92-111.29-15.17C274.18-14.27,164.07-12.67,98.49,20.73c-9.67-10.02-21.1-11.64-33.69-7.78C31.85,23.79,16.82,59.36,4.98,89.17c-8.41,21.93-9,63.71,21.11,67.42,4.55.25,5.76,2.16,6.88,5.84,21.41,67.4,94.2,123.42,166.32,114.58,19.98-3.25,38.38-10.73,55.6-21.18,16.26-5.34,78.02,34.62,97.02,43.5,20.66,14.74,50.13,13.48,58.16-14.14,18.41-60.63-52.38-82.19-91.86-109.12,2.38,0,3.47-.11,4.52.02ZM27.13,144.51c-3.52-.32-6.31-1.8-8.48-4.06-.11-.11-.22-.22-.32-.34-.17-.19-.34-.39-.51-.59-.18-.22-.36-.44-.53-.68-.1-.13-.2-.27-.29-.4-.73-1.04-1.37-2.19-1.92-3.42-.12-.26-.23-.53-.34-.8-.3-.71-.56-1.44-.81-2.2-.09-.3-.18-.6-.27-.91-.09-.31-.18-.62-.26-.94-.04-.14-.08-.29-.11-.43-.07-.28-.14-.56-.2-.84-.36-1.59-.63-3.24-.82-4.93-.06-.53-.12-1.06-.16-1.59-.02-.16-.03-.33-.04-.49-.03-.4-.06-.81-.08-1.21-.46-8.03.68-16.26,2.35-21.46.14-.46.29-.92.44-1.4.15-.48.31-.97.48-1.47.49-1.5,1.03-3.08,1.63-4.74.27-.75.55-1.52.85-2.31,1.64-4.38,3.6-9.18,5.86-14.13.29-.65.59-1.3.9-1.96.3-.65.61-1.3.93-1.96.51-1.05,1.02-2.1,1.55-3.15h0c.8-1.59,1.62-3.17,2.47-4.75,1.7-3.16,3.51-6.29,5.41-9.33,0,0,0,0,0-.01.64-1.02,1.29-2.02,1.94-3,.51-.78,1.04-1.56,1.57-2.32.48-.69.97-1.37,1.46-2.05.52-.71,1.04-1.41,1.57-2.1.53-.7,1.06-1.38,1.6-2.05.72-.89,1.45-1.76,2.19-2.61.27-.32.55-.64.84-.95.22-.25.44-.49.67-.74.1-.11.2-.23.31-.34.52-.56,1.05-1.1,1.58-1.64.38-.39.77-.77,1.16-1.14.58-.57,1.16-1.12,1.76-1.64.3-.26.59-.53.89-.78.56-.48,1.12-.95,1.69-1.39.24-.2.48-.38.73-.57.25-.2.51-.39.76-.57.16-.12.32-.23.47-.34.31-.22.61-.43.92-.64.83-.56,1.67-1.09,2.52-1.58.85-.49,1.7-.94,2.56-1.35.43-.2.86-.4,1.29-.59.55-.22,1.1-.44,1.65-.64.33-.12.66-.23.99-.34.36-.12.72-.23,1.08-.32.15-.05.31-.09.48-.13.37-.1.74-.19,1.12-.27.03,0,.05-.02.08-.02.38-.08.76-.16,1.14-.22.13-.02.25-.04.38-.06.34-.05.68-.1,1.02-.14.08,0,.16,0,.25-.02.35-.04.69-.07,1.04-.09.07,0,.14-.01.21-.01.45-.03.9-.04,1.35-.04,4.19,0,8.51,1.05,12.94,3.37-37.1,30.7-53.42,71.5-59.94,117.82ZM234.8,163.99c.51.06,1.02.12,1.53.19,4.34.54,8.68,1.08,13,1.75.05.01.11.02.16.03,4.68.91,9.48,1.54,14.27,2.21.02,0,.03,0,.04.01,5.61.8,11.21,1.65,16.63,3.08.16.03.33.08.5.13,4.74,1.27,9.33,2.99,13.64,5.5,2.46,1.45,4.92,2.9,7.38,4.34,14.74,8.69,29.49,17.35,44.17,26.13,11.57,6.93,23.11,13.93,34.55,21.08,3.16,1.51,5.99,3.76,8.46,6.53.62.7,1.21,1.42,1.78,2.18.57.75,1.12,1.54,1.64,2.35.78,1.22,1.51,2.49,2.19,3.82,1.13,2.2,2.1,4.54,2.91,6.95,1.63,4.83,2.61,9.98,2.89,15.02.43,7.7-.77,15.16-3.81,20.89-4.51,8.48-13.05,13.17-26.3,9.22-36.63-17.52-73.81-42.61-113.31-55.96-.59-.2-1.18-.4-1.77-.59-.56-.19-1.13-.37-1.71-.55-1.22-.4-2.44-.77-3.66-1.13-.52-.16-1.04-.31-1.56-.46-1.52-.45-3.03-.87-4.56-1.27-1.77-.46-3.56-.9-5.35-1.31-1.08-.25-2.15-.48-3.23-.71-1.45-.3-2.9-.59-4.35-.85-2.09-.37-4.19-.7-6.29-1-1.6-.22-3.2-.41-4.8-.58-7.58-.78-15.26-.97-23.04-.43,15.67,5.7,31.34,11.39,47.97,17.44-2.49,1.47-5.01,2.86-7.55,4.15-1.27.65-2.54,1.28-3.82,1.88h-.01c-1.28.6-2.57,1.18-3.86,1.74-1.95.84-3.91,1.63-5.88,2.36-2.21.83-4.43,1.59-6.67,2.29-3.72,1.17-7.48,2.15-11.26,2.95-.67.14-1.35.28-2.03.41-6.98,1.35-14.02,2.08-21.05,2.16-9.03.1-18.05-.87-26.9-2.95-.3-.07-.59-.14-.88-.21-.91-.22-1.82-.45-2.72-.7-1.53-.41-3.06-.86-4.57-1.34-.91-.29-1.82-.59-2.72-.9-7.37-2.55-14.57-5.91-21.51-10.1-1.18-.62-2.38-1.26-3.57-1.93-1.2-.66-2.4-1.35-3.6-2.07-1.21-.72-2.42-1.46-3.63-2.22-10.28-6.46-20.68-14.57-30.26-23.86t-.01-.01c-.56-.55-1.13-1.1-1.68-1.66-1.11-1.1-2.22-2.23-3.3-3.37-1.07-1.11-2.12-2.24-3.16-3.38-3.2-3.53-6.26-7.2-9.14-10.97-1.43-1.87-2.81-3.77-4.14-5.69-.45-.64-.89-1.29-1.32-1.94-.87-1.29-1.71-2.6-2.53-3.91-2.05-3.29-3.94-6.64-5.65-10.04-.68-1.36-1.34-2.73-1.97-4.1-.23-.51-.46-1.03-.69-1.55-.67-1.55-1.31-3.1-1.92-4.67-.53-1.4-1.03-2.81-1.49-4.21-.7-2.11-1.32-4.22-1.86-6.35-3.12-12.29-3.5-24.89-.14-37.32,1.4-4.82,2.94-9.67,4.63-14.49.64-1.81,1.3-3.61,1.98-5.41.46-1.21.92-2.41,1.4-3.6.71-1.79,1.45-3.57,2.22-5.34h0c1.02-2.37,2.08-4.71,3.2-7.03,6.69-13.93,15.1-26.92,25.8-37.51.44-.45.9-.89,1.35-1.32,2.27-2.17,4.64-4.23,7.12-6.16.49-.39.99-.77,1.49-1.15,2.02-1.51,4.1-2.95,6.25-4.29,2.15-1.35,4.38-2.61,6.67-3.78.58-.29,1.16-.58,1.74-.86,1.16-.56,2.35-1.1,3.55-1.61,1.21-.52,2.43-1.01,3.67-1.47,30.85-14.23,76.97-20.5,110.26-7.73.97.37,1.92.76,2.87,1.16,8.24,3.53,15.61,8.29,21.65,14.49,1.2,1.23,2.36,2.52,3.45,3.88,0,.01.01.01.01.01.73.9,1.43,1.82,2.11,2.78.34.48.67.97,1.01,1.46.97,1.47,1.89,3,2.74,4.59,0,.01.01.01.01.01.47.89.93,1.8,1.36,2.73.86,1.84,1.64,3.76,2.34,5.75.84,2.4,1.56,4.92,2.13,7.56.29,1.32.54,2.66.77,4.04.44,2.75.74,5.62.9,8.61.04.75.07,1.51.09,2.27-26.88-4.21-44.86-22.1-64.77-38.6,7.22,12.84,15.96,24.56,26.72,33.49,10,8.32,21.76,14.23,35.68,16.39.38.06.77.12,1.15.17,12.06,2.36,24.21,4.27,36.4,5.99,7.93,1.12,15.87,2.16,23.81,3.19,10.44,1.36,20.87,2.71,31.28,4.2t.02,0c10.97,1.58,21.91,3.32,32.77,5.41.33.03.66.06.98.1,8.66,1.03,16.37,5.54,22.5,11.76,8.27,8.39,13.65,19.88,14.58,30.08.77,8.38-1.45,15.89-7.55,20.1-.02.02-.05.04-.07.05-3.86,2.63-9.25,3.94-16.4,3.32-57.12-6.97-115.71-18-173.13-11.36-.02.34-.05.67-.07,1.01,1.62.2,3.23.4,4.85.61Z"/>
      <path class="cls-1" d="M46.77,168.37c.6,1.57,1.24,3.12,1.92,4.67-.67-1.55-1.31-3.1-1.92-4.67ZM49.38,174.59c.63,1.38,1.28,2.75,1.97,4.1-.68-1.36-1.34-2.73-1.97-4.1ZM61.85,128.01c-1.46,1.45-1.99,2.89-1.9,4.3.05-3.25,3.12-6.22,6.46-6.01-1.57-.22-3.12.29-4.56,1.71ZM69.4,106.08c-.03-.38-.03-.74,0-1.08-.04.35-.04.71,0,1.08ZM70.12,102.81c.2-.29.43-.55.69-.79-.27.23-.5.5-.69.79ZM70.81,102.02c.58-.53,1.34-.93,2.26-1.15-.94.21-1.69.61-2.26,1.15ZM62.15,136.8c-.1-.08-.19-.17-.28-.25,2.03,2.56,5.2,4.89,7.15,6.76.87.68,1.73,1.37,2.6,2.05-3.26-2.74-6.43-5.58-9.47-8.56ZM71.25,110.55c1.17,1.49,2.87,2.71,4.99,3.26,2.09,1,4.18,2.01,6.26,3.02-3.8-2.03-7.56-4.13-11.25-6.28ZM80.31,73.61c-.24,1.32.14,2.59.94,3.78-.59-1.07-.94-2.32-.94-3.78ZM81.93,70.65c.93-.78,2.06-1.51,2.78-2.19-1.18.73-2.1,1.46-2.78,2.19ZM87.54,82.28c1.85.88,3.82,1.54,5.6,1.9-1.79-.54-3.75-1.13-5.6-1.9ZM89.7,159.49c4.6,3.56,9.23,7.08,13.9,10.55-4.57-3.58-9.24-7.06-13.9-10.55ZM84.79,104.9c1.11.66,2.24,1.31,3.4,1.88,6.7,3.29,13.41,6.57,20.12,9.84-7.87-3.88-15.72-7.79-23.52-11.72ZM105.7,170.83c1.3.34,2.51.32,3.62-.07-1.16.21-2.47.27-3.62.07ZM112.29,168.62c.7-.82,1.32-1.85,1.86-3.08-.73,1.04-1.3,2.15-1.86,3.08ZM114.75,132.91c8.49,4.19,17.04,8.27,25.78,12.08-8.53-4.02-17.17-8.01-25.78-12.08ZM130.36,83.81c1.09.37,2.19.72,3.29,1.07-1.06-.44-2.21-.79-3.29-1.07ZM137.48,87.63c1.66,3.07.14,7.58-3.17,8.65,1.71-.46,2.99-1.8,3.63-4,.65-1.95.37-3.46-.46-4.65ZM228,72.97c10,8.32,21.76,14.23,35.68,16.39-13.02-3.23-24.94-8.07-35.68-16.39ZM249.49,165.96c4.68.91,9.48,1.54,14.27,2.21-4.75-.79-9.5-1.52-14.27-2.21ZM280.79,171.33c-.12-.02-.24-.05-.36-.07.16.03.33.08.5.13-.05-.02-.09-.04-.14-.06ZM301.23,95.52c7.93,1.12,15.87,2.16,23.81,3.19-8.2-1.26-16.14-2.23-23.81-3.19ZM301.95,181.23c14.74,8.69,29.49,17.35,44.17,26.13-14.52-9.15-29.08-18.28-44.17-26.13ZM356.34,102.91c10.97,1.58,21.91,3.32,32.77,5.41.33.03.66.06.98.1-10.53-3.07-22.23-4.37-33.75-5.51ZM403.15,173.73c6.95,1.58,12.43.04,16.4-3.32-3.86,2.63-9.25,3.94-16.4,3.32ZM425.21,140.11c-2.79-8.55-7.15-15-12.62-19.93,8.27,8.39,13.65,19.88,14.58,30.08-.12-3.43-.77-6.9-1.96-10.15Z"/>
      <path class="cls-1" d="M26.98,68.09c.79-1.58,1.62-3.17,2.47-4.74-.85,1.58-1.67,3.16-2.47,4.74Z"/>
      <path class="cls-1" d="M29.45,63.35c1.69-3.16,3.5-6.29,5.41-9.33-1.9,3.04-3.71,6.17-5.41,9.33Z"/>
      <path class="cls-1" d="M62.05,26.21c-.86.41-1.71.86-2.56,1.35.84-.49,1.7-.94,2.56-1.35Z"/>
      <path class="cls-1" d="M145.18,141.02c-.53,1.72-3.17,2.8-4.65,3.97-8.74-3.81-17.29-7.89-25.78-12.08-10.76-5.31-21.43-10.79-32.25-16.08-2.08-1.01-4.17-2.02-6.26-3.02-2.12-.55-3.82-1.77-4.99-3.26-.73-.92-1.26-1.94-1.57-2.97-.03-.12-.06-.24-.09-.35-.05-.2-.09-.39-.12-.59-.03-.19-.05-.38-.07-.56-.04-.37-.04-.73,0-1.08.02-.17.04-.34.07-.5.03-.17.07-.33.11-.48.05-.16.1-.31.16-.46.06-.14.13-.28.2-.42-.01-.01-.01-.02,0-.02.22-.42.51-.79.87-1.1.57-.54,1.32-.94,2.26-1.15.19-.04.38-.08.58-.11.17-.03.35-.05.53-.06.19-.02.38-.03.59-.03.6,0,1.27.04,1.99.16,2.67,1.36,5.35,2.71,8.03,4.07,7.8,3.93,15.65,7.84,23.52,11.72.17.08.34.16.5.24,10.41,5.13,20.86,10.21,31.27,15.25.44.1.86.24,1.24.41.78.35,1.43.84,1.98,1.43,1.72,1.86,2.32,4.7,1.88,7.07Z"/>
      <path class="cls-1" d="M114.15,165.54c-.54,1.23-1.16,2.26-1.86,3.08,0,0,0,.01,0,.01-.88,1.05-1.87,1.76-2.96,2.13h-.01c-1.11.39-2.32.41-3.62.07-.04,0-.07-.01-.1-.02-.65-.17-1.31-.43-2-.77-4.67-3.47-9.3-6.99-13.9-10.55-6.06-4.67-12.07-9.4-18.08-14.13-.87-.68-1.73-1.37-2.6-2.05-1.95-1.87-5.12-4.2-7.15-6.76h-.01c-1.07-1.36-1.82-2.78-1.91-4.24-.09-1.41.44-2.85,1.9-4.3,1.44-1.42,2.99-1.93,4.56-1.71,1.31.17,2.63.83,3.92,1.87,3.59,3.2,7.34,6.22,11.15,9.17,1.91,1.48,3.82,2.94,5.74,4.4,1.91,1.46,3.83,2.92,5.73,4.4,7.6,5.9,14.96,12.04,21.2,19.4Z"/>
      <path class="cls-1" d="M137.94,92.28c-.64,2.2-1.92,3.54-3.63,4-1.1.3-2.39.24-3.79-.2-12.48-3.89-24.95-7.84-37.38-11.9-1.78-.36-3.75-1.02-5.6-1.9-2.61-1.25-4.99-2.94-6.28-4.87-.01,0-.01-.01-.01-.02-.8-1.19-1.18-2.46-.94-3.78h0c.18-.96.68-1.94,1.58-2.92l.04-.04c.68-.73,1.6-1.46,2.78-2.19.97.3,1.93.6,2.89.9,2.89.91,5.74,1.84,8.57,2.78.95.32,1.89.64,2.83.95.94.32,1.88.64,2.81.95,5.63,1.92,11.21,3.88,16.84,5.82,1.87.65,3.76,1.3,5.65,1.94,1.09.37,2.19.75,3.3,1.11.8.28,1.6.54,2.4.81.12.03.23.06.35.09h0c1.08.28,2.23.63,3.29,1.07,1.57.66,2.98,1.54,3.83,2.75.83,1.19,1.11,2.7.46,4.65Z"/>
    </g>
  </g>
</svg>